<svg width="3592" height="1554" xmlns="http://www.w3.org/2000/svg" xmlns:xlink="http://www.w3.org/1999/xlink" overflow="hidden"><defs><clipPath id="clip0"><rect x="175" y="321" width="3592" height="1554"/></clipPath><clipPath id="clip1"><rect x="174" y="601" width="1271" height="1271"/></clipPath><clipPath id="clip2"><rect x="174" y="601" width="1271" height="1271"/></clipPath><clipPath id="clip3"><rect x="174" y="601" width="1271" height="1271"/></clipPath><clipPath id="clip4"><rect x="1556" y="598" width="1277" height="1278"/></clipPath><clipPath id="clip5"><rect x="1556" y="598" width="1277" height="1278"/></clipPath><clipPath id="clip6"><rect x="1556" y="598" width="1277" height="1278"/></clipPath></defs><g clip-path="url(#clip0)" transform="translate(-175 -321)"><g clip-path="url(#clip1)"><g clip-path="url(#clip2)"><g clip-path="url(#clip3)"><path d="M1129.39 773.844C1129.39 832.248 1082.05 879.594 1023.64 879.594 965.24 879.594 917.894 832.248 917.894 773.844 917.894 715.44 965.24 668.094 1023.64 668.094 1082.05 668.094 1129.39 715.44 1129.39 773.844Z"/><path d="M1280.09 919.25C1253.65 906.031 1221.93 915.284 1208.71 941.722L1162.44 1028.97 958.872 900.744C950.941 895.456 941.688 892.812 931.113 892.812L706.394 892.812C686.566 892.812 669.381 903.387 660.128 920.572L574.206 1079.2C559.666 1104.31 570.241 1137.36 595.356 1150.58 603.287 1154.54 612.541 1157.19 620.472 1157.19 638.978 1157.19 657.484 1146.61 666.738 1129.43L738.119 998.562 816.109 998.562 582.137 1434.78 362.706 1434.78C333.625 1434.78 309.831 1458.57 309.831 1487.66 309.831 1516.74 333.625 1540.53 362.706 1540.53L613.863 1540.53C633.691 1540.53 650.875 1529.96 660.128 1512.77L752.659 1342.25 904.675 1483.69 892.778 1749.39C890.134 1778.47 912.606 1803.58 941.688 1804.91 943.009 1804.91 943.009 1804.91 944.331 1804.91 972.091 1804.91 995.884 1782.43 997.206 1754.67L1010.43 1463.86C1011.75 1448 1005.14 1433.46 993.241 1422.88L865.019 1303.92 999.85 1052.76 1153.19 1149.26C1165.08 1157.19 1180.95 1159.83 1195.49 1155.87 1210.03 1151.9 1221.93 1142.65 1228.53 1129.43L1301.24 990.631C1315.78 965.516 1306.53 933.791 1280.09 919.25Z"/></g></g></g><g clip-path="url(#clip4)"><g clip-path="url(#clip5)"><g clip-path="url(#clip6)"><path d="M1069.98 604.771C1069.98 670.838 1016.42 724.396 950.354 724.396 884.287 724.396 830.729 670.838 830.729 604.771 830.729 538.704 884.287 485.146 950.354 485.146 1016.42 485.146 1069.98 538.704 1069.98 604.771Z" transform="matrix(1 0 0 1.00078 1556 598)"/><path d="M372.167 817.438 372.167 817.438C389.446 816.108 406.725 812.121 424.004 805.475 450.588 794.842 477.171 789.525 505.083 788.196 532.996 789.525 560.908 794.842 586.162 805.475 602.112 812.121 619.392 816.108 638 817.438 655.279 816.108 672.558 812.121 689.838 805.475 716.421 794.842 743.004 789.525 770.917 788.196 798.829 789.525 826.742 794.842 851.996 805.475L861.3 808.133C861.3 801.487 858.642 796.171 855.983 790.854L829.4 741.675 829.4 740.346 695.154 482.487 919.783 424.004C955.671 414.7 976.938 378.812 967.633 342.925 958.329 307.038 922.442 285.771 886.554 295.075L580.846 374.825C560.908 380.142 544.958 393.433 536.983 412.042 529.008 430.65 529.008 451.917 538.312 469.196L619.392 626.037 322.987 801.487C321.658 802.817 320.329 804.146 317.671 805.475L320.329 806.804C337.608 812.121 354.888 816.108 372.167 817.438Z" transform="matrix(1 0 0 1.00078 1556 598)"/><path d="M1116.5 891.871C1091.25 881.238 1064.66 875.921 1036.75 874.592L1036.75 874.592C1008.84 875.921 982.254 881.238 957 891.871 939.721 898.517 922.442 902.504 903.833 903.833L903.833 903.833C885.225 902.504 867.946 898.517 850.667 891.871 825.412 881.238 798.829 875.921 770.917 874.592L770.917 874.592C743.004 875.921 716.421 881.238 691.167 891.871 673.888 898.517 656.608 902.504 638 903.833 619.392 902.504 602.112 898.517 584.833 891.871 559.579 881.238 532.996 875.921 505.083 874.592L505.083 874.592C477.171 875.921 450.588 881.238 425.333 891.871 408.054 898.517 390.775 902.504 372.167 903.833 353.558 902.504 336.279 898.517 319 891.871 293.746 881.238 267.163 875.921 239.25 874.592L239.25 874.592C211.337 875.921 184.754 881.238 159.5 891.871 142.221 898.517 124.942 902.504 106.333 903.833L106.333 983.583C134.246 982.254 160.829 976.938 186.083 966.304 203.363 959.658 220.642 954.342 239.25 954.342 257.858 955.671 275.138 959.658 292.417 966.304 317.671 976.938 344.254 982.254 372.167 983.583L372.167 983.583C400.079 982.254 426.662 976.938 451.917 966.304 469.196 959.658 486.475 954.342 505.083 954.342 523.692 955.671 540.971 959.658 558.25 966.304 583.504 976.938 610.088 982.254 638 983.583 665.912 982.254 692.496 976.938 717.75 966.304 735.029 959.658 752.308 954.342 770.917 954.342 789.525 955.671 806.804 959.658 824.083 966.304 849.338 976.938 875.921 982.254 903.833 983.583L903.833 983.583C931.746 982.254 958.329 976.938 983.583 966.304 1000.86 959.658 1018.14 954.342 1036.75 954.342 1055.36 955.671 1072.64 959.658 1089.92 966.304 1115.17 976.938 1141.75 982.254 1169.67 983.583L1169.67 903.833C1151.06 902.504 1133.78 898.517 1116.5 891.871Z" transform="matrix(1 0 0 1.00078 1556 598)"/></g></g></g><text font-family="Calibri,Calibri_MSFontService,sans-serif" font-weight="400" font-size="83" transform="matrix(1 0 0 1 678.843 423)">Run Km<tspan font-size="83" x="1384.44" y="0">Swim Km</tspan><tspan font-size="83" x="2746.01" y="0">Walk Km</tspan></text></g></svg>