<svg width="2437" height="1035" xmlns="http://www.w3.org/2000/svg" xmlns:xlink="http://www.w3.org/1999/xlink" overflow="hidden"><defs><clipPath id="clip0"><rect x="958" y="295" width="2437" height="1035"/></clipPath><clipPath id="clip1"><rect x="958" y="511" width="812" height="815"/></clipPath><clipPath id="clip2"><rect x="958" y="511" width="812" height="815"/></clipPath><clipPath id="clip3"><rect x="958" y="511" width="812" height="815"/></clipPath><clipPath id="clip4"><rect x="1769" y="517" width="813" height="813"/></clipPath><clipPath id="clip5"><rect x="1769" y="517" width="813" height="813"/></clipPath><clipPath id="clip6"><rect x="1769" y="517" width="813" height="813"/></clipPath><clipPath id="clip7"><rect x="2607" y="542" width="788" height="788"/></clipPath><clipPath id="clip8"><rect x="2607" y="542" width="788" height="788"/></clipPath><clipPath id="clip9"><rect x="2607" y="542" width="788" height="788"/></clipPath></defs><g clip-path="url(#clip0)" transform="translate(-958 -295)"><g clip-path="url(#clip1)"><g clip-path="url(#clip2)"><g clip-path="url(#clip3)"><path d="M610.692 109.958C610.692 147.33 580.396 177.625 543.025 177.625 505.654 177.625 475.358 147.33 475.358 109.958 475.358 72.5871 505.654 42.2917 543.025 42.2917 580.396 42.2917 610.692 72.5871 610.692 109.958Z" transform="matrix(1 0 0 1.00123 958 512)"/><path d="M707.117 203C690.2 194.542 669.9 200.462 661.442 217.379L631.837 273.204 501.579 191.158C496.504 187.775 490.583 186.083 483.817 186.083L340.025 186.083C327.337 186.083 316.342 192.85 310.421 203.846L255.442 305.346C246.137 321.417 252.904 342.562 268.975 351.021 274.05 353.558 279.971 355.25 285.046 355.25 296.887 355.25 308.729 348.483 314.65 337.487L360.325 253.75 410.229 253.75 260.517 532.875 120.108 532.875C101.5 532.875 86.275 548.1 86.275 566.708 86.275 585.317 101.5 600.542 120.108 600.542L280.817 600.542C293.504 600.542 304.5 593.775 310.421 582.779L369.629 473.667 466.9 564.171 459.287 734.183C457.596 752.792 471.975 768.862 490.583 769.708 491.429 769.708 491.429 769.708 492.275 769.708 510.037 769.708 525.262 755.329 526.108 737.567L534.567 551.483C535.412 541.333 531.183 532.029 523.571 525.262L441.525 449.137 527.8 288.429 625.917 350.175C633.529 355.25 643.679 356.942 652.983 354.404 662.287 351.867 669.9 345.946 674.129 337.487L720.65 248.675C729.954 232.604 724.033 212.304 707.117 203Z" transform="matrix(1 0 0 1.00123 958 512)"/></g></g></g><text font-family="Calibri,Calibri_MSFontService,sans-serif" font-weight="400" font-size="83" transform="matrix(1 0 0 1 1233.03 397)">Run Km</text><g clip-path="url(#clip4)"><g clip-path="url(#clip5)"><g clip-path="url(#clip6)"><path d="M680.896 384.854C680.896 426.897 646.814 460.979 604.771 460.979 562.728 460.979 528.646 426.897 528.646 384.854 528.646 342.811 562.728 308.729 604.771 308.729 646.814 308.729 680.896 342.811 680.896 384.854Z" transform="matrix(1 0 0 1.00123 1770 517)"/><path d="M236.833 520.188 236.833 520.188C247.829 519.342 258.825 516.804 269.821 512.575 286.737 505.808 303.654 502.425 321.417 501.579 339.179 502.425 356.942 505.808 373.012 512.575 383.162 516.804 394.158 519.342 406 520.188 416.996 519.342 427.992 516.804 438.987 512.575 455.904 505.808 472.821 502.425 490.583 501.579 508.346 502.425 526.108 505.808 542.179 512.575L548.1 514.267C548.1 510.037 546.408 506.654 544.717 503.271L527.8 471.975 527.8 471.129 442.371 307.037 585.317 269.821C608.154 263.9 621.688 241.062 615.767 218.225 609.846 195.387 587.008 181.854 564.171 187.775L369.629 238.525C356.942 241.908 346.792 250.367 341.717 262.208 336.642 274.05 336.642 287.583 342.562 298.579L394.158 398.387 205.537 510.037C204.692 510.883 203.846 511.729 202.154 512.575L203.846 513.421C214.842 516.804 225.837 519.342 236.833 520.188Z" transform="matrix(1 0 0 1.00123 1770 517)"/><path d="M710.5 567.554C694.429 560.787 677.512 557.404 659.75 556.558L659.75 556.558C641.987 557.404 625.071 560.787 609 567.554 598.004 571.783 587.008 574.321 575.167 575.167L575.167 575.167C563.325 574.321 552.329 571.783 541.333 567.554 525.262 560.787 508.346 557.404 490.583 556.558L490.583 556.558C472.821 557.404 455.904 560.787 439.833 567.554 428.837 571.783 417.842 574.321 406 575.167 394.158 574.321 383.162 571.783 372.167 567.554 356.096 560.787 339.179 557.404 321.417 556.558L321.417 556.558C303.654 557.404 286.737 560.787 270.667 567.554 259.671 571.783 248.675 574.321 236.833 575.167 224.992 574.321 213.996 571.783 203 567.554 186.929 560.787 170.012 557.404 152.25 556.558L152.25 556.558C134.487 557.404 117.571 560.787 101.5 567.554 90.5042 571.783 79.5083 574.321 67.6667 575.167L67.6667 625.917C85.4292 625.071 102.346 621.688 118.417 614.921 129.412 610.692 140.408 607.308 152.25 607.308 164.092 608.154 175.087 610.692 186.083 614.921 202.154 621.688 219.071 625.071 236.833 625.917L236.833 625.917C254.596 625.071 271.512 621.688 287.583 614.921 298.579 610.692 309.575 607.308 321.417 607.308 333.258 608.154 344.254 610.692 355.25 614.921 371.321 621.688 388.237 625.071 406 625.917 423.762 625.071 440.679 621.688 456.75 614.921 467.746 610.692 478.742 607.308 490.583 607.308 502.425 608.154 513.421 610.692 524.417 614.921 540.487 621.688 557.404 625.071 575.167 625.917L575.167 625.917C592.929 625.071 609.846 621.688 625.917 614.921 636.912 610.692 647.908 607.308 659.75 607.308 671.592 608.154 682.587 610.692 693.583 614.921 709.654 621.688 726.571 625.071 744.333 625.917L744.333 575.167C732.492 574.321 721.496 571.783 710.5 567.554Z" transform="matrix(1 0 0 1.00123 1770 517)"/></g></g></g><text font-family="Calibri,Calibri_MSFontService,sans-serif" font-weight="400" font-size="83" transform="matrix(1 0 0 1 2039.44 397)">Swim Km</text><g clip-path="url(#clip7)"><g clip-path="url(#clip8)"><g clip-path="url(#clip9)"><path d="M2968.17 615.875C2968.17 638.542 2951.63 656.917 2931.23 656.917 2910.83 656.917 2894.29 638.542 2894.29 615.875 2894.29 593.208 2910.83 574.833 2931.23 574.833 2951.63 574.833 2968.17 593.208 2968.17 615.875Z"/><path d="M2877.88 632.292C2877.88 645.892 2868.69 656.917 2857.35 656.917 2846.02 656.917 2836.83 645.892 2836.83 632.292 2836.83 618.692 2846.02 607.667 2857.35 607.667 2868.69 607.667 2877.88 618.692 2877.88 632.292Z"/><path d="M2828.62 661.021C2828.62 672.354 2821.27 681.542 2812.21 681.542 2803.14 681.542 2795.79 672.354 2795.79 661.021 2795.79 649.688 2803.14 640.5 2812.21 640.5 2821.27 640.5 2828.62 649.688 2828.62 661.021Z"/><path d="M2795.79 697.958C2795.79 707.025 2790.28 714.375 2783.48 714.375 2776.68 714.375 2771.17 707.025 2771.17 697.958 2771.17 688.892 2776.68 681.542 2783.48 681.542 2790.28 681.542 2795.79 688.892 2795.79 697.958Z"/><path d="M2771.17 730.792C2771.17 739.858 2765.65 747.208 2758.85 747.208 2752.05 747.208 2746.54 739.858 2746.54 730.792 2746.54 721.725 2752.05 714.375 2758.85 714.375 2765.65 714.375 2771.17 721.725 2771.17 730.792Z"/><path d="M2886.08 681.542C2838.48 681.542 2754.75 751.313 2754.75 804.667 2754.75 880.183 2787.58 887.571 2787.58 944.208 2787.58 1000.85 2755.57 1108.38 2861.46 1108.38 2982.94 1108.38 2910.71 962.267 2910.71 927.792 2910.71 835.858 2959.96 808.771 2959.96 739 2959.96 693.033 2933.69 681.542 2886.08 681.542Z"/><path d="M3107.71 804.667C3107.71 827.333 3091.17 845.708 3070.77 845.708 3050.37 845.708 3033.83 827.333 3033.83 804.667 3033.83 782 3050.37 763.625 3070.77 763.625 3091.17 763.625 3107.71 782 3107.71 804.667Z"/><path d="M3165.17 821.083C3165.17 834.683 3155.98 845.708 3144.65 845.708 3133.31 845.708 3124.12 834.683 3124.12 821.083 3124.12 807.483 3133.31 796.458 3144.65 796.458 3155.98 796.458 3165.17 807.483 3165.17 821.083Z"/><path d="M3206.21 849.813C3206.21 861.146 3198.86 870.333 3189.79 870.333 3180.72 870.333 3173.38 861.146 3173.38 849.813 3173.38 838.479 3180.72 829.292 3189.79 829.292 3198.86 829.292 3206.21 838.479 3206.21 849.813Z"/><path d="M3230.83 886.75C3230.83 895.817 3225.32 903.167 3218.52 903.167 3211.72 903.167 3206.21 895.817 3206.21 886.75 3206.21 877.683 3211.72 870.333 3218.52 870.333 3225.32 870.333 3230.83 877.683 3230.83 886.75Z"/><path d="M3255.46 919.583C3255.46 928.65 3249.95 936 3243.15 936 3236.35 936 3230.83 928.65 3230.83 919.583 3230.83 910.517 3236.35 903.167 3243.15 903.167 3249.95 903.167 3255.46 910.517 3255.46 919.583Z"/><path d="M3115.92 870.333C3068.31 870.333 3042.04 881.825 3042.04 927.792 3042.04 997.563 3091.29 1024.65 3091.29 1116.58 3091.29 1151.06 3019.06 1297.17 3140.54 1297.17 3246.43 1297.17 3214.42 1189.64 3214.42 1133 3214.42 1076.36 3247.25 1068.98 3247.25 993.458 3247.25 940.104 3163.52 870.333 3115.92 870.333Z"/></g></g></g><text font-family="Calibri,Calibri_MSFontService,sans-serif" font-weight="400" font-size="83" transform="matrix(1 0 0 1 2895.45 397)">Walk Km</text></g></svg>