<?xml version="1.0" encoding="utf-8"?>
<!-- Generator: Adobe Illustrator 25.4.1, SVG Export Plug-In . SVG Version: 6.00 Build 0)  -->
<svg version="1.1" id="Layer_1" xmlns="http://www.w3.org/2000/svg" xmlns:xlink="http://www.w3.org/1999/xlink" x="0px" y="0px"
	 viewBox="0 0 1920 1080" enable-background="new 0 0 1920 1080" xml:space="preserve">
<g>
	<path fill="#FFFFFF" stroke="#161616" stroke-width="10" stroke-miterlimit="10" d="M808.61,677.31
		c-9.61,10.77-21.11,19.74-33.94,26.39L503.68,845.01c-31.71,16.95-43.64,56.43-26.65,88.1c16.99,31.71,56.43,43.64,88.14,26.65
		l287.04-149.59c11.41-5.92,21.71-13.86,30.34-23.39l114.92-126.72l-95.82-87.11L808.61,677.31z"/>
	<path fill="#FFFFFF" stroke="#161616" stroke-width="10" stroke-miterlimit="10" d="M1398.82,447.52l-102.34-0.43l-58.1-90.84
		c-0.86,2.83-1.97,5.66-3.3,8.45l-48.92,103.12l36.22,56.56c10.6,16.61,28.88,26.65,48.58,26.73l127.53,0.51
		c28.75,0.09,52.14-23.17,52.22-51.88C1450.83,470.99,1427.57,447.6,1398.82,447.52z"/>
	<circle fill="#FFFFFF" stroke="#161616" stroke-width="10" stroke-miterlimit="10" cx="1242.23" cy="146" r="96.92"/>
	<path fill="#FFFFFF" stroke="#161616" stroke-width="10" stroke-miterlimit="10" d="M1094.58,225.09
		c-13.61-6.24-33.03-6.56-49.6-3.05l-154.23,32.7c-19.56,4.15-36.62,16.01-47.31,32.91l-80.89,127.86
		c-15.35,24.32-8.08,56.47,16.24,71.82c24.32,15.35,56.47,8.08,71.82-16.24l74.09-117.1l95.09-20.16l-0.01,0.01L911.73,561.71
		l-0.04,0.04l0.09,0.04v0.04l95.78,87.07l97.88,89l-6.27,14.63l-80.76,188.21c-14.12,32.83,1.12,70.89,33.94,84.97
		c8.32,3.56,16.95,5.24,25.45,5.24c25.1,0,48.96-14.68,59.48-39.18l103.03-240.09c15.96-22.7,12.96-54.2-8.11-73.38l-101.92-92.65
		l-7.98-7.29l55.7-123.33l44.16-97.8c2.66-5.92,4.42-12.02,5.24-18.11v-0.04c3.82-26.56-8.84-53.55-32.83-67.33
		c-0.04,0-0.04-0.04-0.09-0.04c-1.54-0.86-3.09-1.67-4.72-2.45C1189.76,269.26,1108.19,231.33,1094.58,225.09z"/>
</g>
<g>
</g>
<g>
</g>
<g>
</g>
<g>
</g>
<g>
</g>
<g>
</g>
</svg>
