<?xml version="1.0" encoding="utf-8"?>
<!-- Generator: Adobe Illustrator 25.4.1, SVG Export Plug-In . SVG Version: 6.00 Build 0)  -->
<svg version="1.1" id="Layer_1" xmlns="http://www.w3.org/2000/svg" xmlns:xlink="http://www.w3.org/1999/xlink" x="0px" y="0px"
	 viewBox="0 0 1920 1080" style="enable-background:new 0 0 1920 1080;" xml:space="preserve">
<style type="text/css">
	.st0{fill:#151515;stroke:#141414;stroke-width:20;stroke-miterlimit:10;}
	.st1{fill:#151515;stroke:#141414;stroke-width:21.7082;stroke-miterlimit:10;}
	.st2{fill:#141414;}
</style>
<path class="st0" d="M-1079.8,560.7c-3,10.9-7.9,21.2-14.6,30.4l-140.9,193.7c-16.3,22.9-11,54.8,12,71.1c23,16.3,54.8,10.9,71.2-12
	l149.3-205.1c6-8.1,10.4-17.3,13.1-27l21.1-74.7l-79.7-85.4L-1079.8,560.7z"/>
<path class="st0" d="M-894.9,193.6l12.2,183l81.3,53c18.6,12.7,44,7.9,56.7-10.7c4.8-7,7.1-15,7.1-22.9c0-13-6.2-25.8-17.8-33.7
	l-70.8-34.8l-56.2-130.6C-883,185.8-894.9,188.8-894.9,193.6z"/>
<path class="st0" d="M-793.1,578.4c-5.5-18.2-15-34.9-27.8-48.9l-73.8-80.4v-82.6V198c0-28.3-18.8-52.2-44.5-59.9
	c-5.1-1.5-10.6-2.5-16.2-2.6l0,0h-1.9h-60.1h-10.3c-2,0-3.9,0.1-5.8,0.3c-9.5,1-18.6,4.5-26.3,10.3l-124.6,92.6
	c-5.8,4.3-10.4,10.1-13.2,16.7l-48.7,101.4c-9.3,20.5-0.2,44.7,20.3,54c5.5,2.5,11.2,3.7,16.8,3.7c15.5,0,30.3-8.9,37.2-23.9
	l45-92.8l81.5-60.6v198.7v-8.5l0,8.5l80.7,87.9l61.2,66.7c7.4,8,12.8,17.6,16,28l1.2,4l62.4,206.3c8.1,27,36.5,42.3,63.5,34.2
	c27-8.1,42.3-36.5,34.2-63.5L-793.1,578.4z"/>
<ellipse transform="matrix(0.7071 -0.7071 0.7071 0.7071 -300.0042 -663.688)" class="st0" cx="-951.1" cy="30.3" rx="76" ry="76"/>
<g>
	<path class="st1" d="M1346,618.3l-95.9,8.1c-18.2,1.5-36.4-3-51.8-12.9l-125-80.1l0.1-0.1l47.7-56.1c4.2-5,7.6-10.5,10.2-16.2v0
		c0.9-1.9,1.6-3.9,2.3-5.9l111.2,71.4l91.1-7.6c27.4-2.3,52.7,17.1,55.5,44.5C1394.3,591.2,1373.8,615.9,1346,618.3z"/>
	<path class="st1" d="M1121.1,345.1c40.6,35.8,102.6,32,138.4-8.6c35.8-40.6,32-102.6-8.6-138.4c-40.6-35.8-102.6-32-138.4,8.6
		C1076.6,247.3,1080.5,309.3,1121.1,345.1z"/>
	<path class="st1" d="M1117.5,455.2L1117.5,455.2c-2.5,5.7-5.9,11.2-10.2,16.2l-70.3,82.7l-49.7,58.4l-210-62.2L917.1,392
		l-118.1-8.4c0,0-114.9,38.5-138.7,45c-23.9,6.5-61.6,4.8-73-21.1c-11.4-25.9-0.6-54.2,27.4-65.8c28-11.6,140.2-54.3,177.1-58.4
		c36.9-4.1,181.1,7,181.1,7c17.1,1.2,35.9,6.9,47.3,16.8c11.5,9.9,80.2,69.6,80.2,69.6c1.4,1.2,2.6,2.4,3.9,3.7c0,0,0,0.1,0.1,0.1
		C1123.9,400.6,1128.7,430.4,1117.5,455.2z"/>
	<g>
		<path class="st2" d="M1142.7,658.4c-74.4,0-152.6-8.5-228.2-31.4c-233.2-70.7-446.1-89.1-509.3-93.3c-10.5-0.7-18.6-9.7-18.2-20.2
			l0,0c0.4-11,9.8-19.5,20.8-18.8c65.3,4.3,281.6,23.2,518.1,94.9c236.7,71.7,508.8-7.7,579.9-31.2c9.9-3.3,20.7,1.8,24.4,11.6
			l0,0.1c3.9,10.4-1.5,21.9-12,25.4C1465.8,613.2,1314.4,658.4,1142.7,658.4z"/>
	</g>
	<g>
		<path class="st2" d="M1229.7,776.5c-58.7,0-124.7-7.1-197.1-25.6c-256.6-65.5-548.8-54.3-625.1-49.9c-10.6,0.6-19.7-7.3-20.6-17.9
			l0,0c-0.9-10.9,7.4-20.4,18.3-21.1c78.6-4.5,375.6-15.7,637,51c243.7,62.2,412.1-12.8,461.8-39.7c8.8-4.8,19.8-2.1,25.4,6.2
			l0.1,0.1c6.5,9.5,3.3,22.5-6.8,28.1C1482.9,729.8,1380.2,776.5,1229.7,776.5z"/>
	</g>
	<g>
		<path class="st2" d="M1374.9,906.5c-53.7,0-128.1-6.5-218.1-31C977,826.4,788.6,822,696.9,831c-10.4,1-19.7-6.4-21.2-16.7l0,0
			c-1.5-11,6.4-21.1,17.4-22.2c95.4-9.2,289.5-4.7,473.9,45.6c138.1,37.6,238.3,30.5,276.9,25.2c10-1.4,19.3,5,21.7,14.8l0,0.1
			c2.7,11.2-4.8,22.3-16.2,23.9C1433.2,904,1408,906.5,1374.9,906.5z"/>
	</g>
</g>
</svg>
