<svg id="Line-Expand" enable-background="new 0 0 64 64" height="512" viewBox="0 0 64 64" width="512" xmlns="http://www.w3.org/2000/svg"><path d="m43.914 44.594-3.494-7.862 2.102 1.146c.151.083.315.122.477.122.34 0 .671-.174.858-.485l3-5c.284-.474.131-1.088-.343-1.372l-6.514-3.909v-8.234c0-2.201-1.439-4.054-3.419-4.719 1.479-1.285 2.419-3.174 2.419-5.281 0-3.859-3.14-7-7-7s-7 3.141-7 7c0 2.107.94 3.996 2.419 5.281-1.98.665-3.419 2.518-3.419 4.719v3.931l-7.772 9.433c-.327.397-.299.979.065 1.343l4 4c.188.188.442.293.707.293.011 0 .023 0 .034-.001.277-.009.538-.133.72-.342l2.73-3.133c.398 1.434 1.042 2.784 1.909 4.005l-2.326 10.067-5.899 8.849c-.288.432-.198 1.012.208 1.336l5 4c.178.143.398.219.624.219.044 0 .089-.003.133-.009.271-.036.515-.182.675-.403l8-11c.066-.091.117-.192.149-.3l1.368-4.549 1.765 1.764 2.935 12.721c.105.455.509.776.975.776h6c.297 0 .58-.133.77-.361s.268-.53.213-.823l-3-16c-.014-.077-.038-.151-.069-.222zm-16.914-35.594c0-2.757 2.243-5 5-5s5 2.243 5 5c0 1.184-.431 2.259-1.122 3.117-.553-.554-.878-1.315-.878-2.117h-2c0 1.274.497 2.48 1.341 3.391-.702.376-1.491.609-2.341.609-2.757 0-5-2.243-5-5zm-6.05 26.535-2.601-2.601 5.651-6.858v4.954c0 .32.024.636.046.952zm10.141 15.014-7.284 10.017-3.466-2.773 5.491-8.237c.067-.101.115-.212.142-.329l2.034-8.803 4.712 4.712zm9.704 9.451-2.821-12.225c-.042-.183-.135-.35-.268-.482l-8.49-8.49c-2.073-2.074-3.216-4.835-3.216-7.773v-12.03c0-1.654 1.346-3 3-3h6c1.654 0 3 1.346 3 3v7.034l-1.168-.701-1.883-5.649-1.897.633 2 6c.076.227.229.418.434.541l9.143 5.485-1.992 3.319-9.86-5.378-3.863-8.69-1.827.812 4 9c.089.2.242.366.435.472l6.478 3.534v.588c0 .14.029.278.086.406l3.952 8.893 2.757 14.701z"/></svg>